<svg xmlns="http://www.w3.org/2000/svg" xmlns:xlink="http://www.w3.org/1999/xlink" width="500" zoomAndPan="magnify" viewBox="0 0 375 149.999998" height="200" preserveAspectRatio="xMidYMid meet" version="1.0"><defs><g/><clipPath id="cc22e8f23c"><path d="M 261.738281 62.261719 L 283.59375 62.261719 L 283.59375 99.679688 L 261.738281 99.679688 Z M 261.738281 62.261719 " clip-rule="nonzero"/></clipPath><clipPath id="227c0c4ae8"><path d="M 265 54 L 280 54 L 280 100 L 265 100 Z M 265 54 " clip-rule="nonzero"/></clipPath><clipPath id="45ad5dbdd4"><path d="M 257.539062 61.320312 L 277.5 54.492188 L 290.703125 93.089844 L 270.738281 99.917969 Z M 257.539062 61.320312 " clip-rule="nonzero"/></clipPath><clipPath id="715deb4622"><path d="M 257.539062 61.320312 L 277.5 54.492188 L 290.703125 93.089844 L 270.738281 99.917969 Z M 257.539062 61.320312 " clip-rule="nonzero"/></clipPath><clipPath id="0657937ff7"><path d="M 265 57 L 273 57 L 273 100 L 265 100 Z M 265 57 " clip-rule="nonzero"/></clipPath><clipPath id="f8e6e95bd3"><path d="M 257.539062 61.320312 L 277.5 54.492188 L 290.703125 93.089844 L 270.738281 99.917969 Z M 257.539062 61.320312 " clip-rule="nonzero"/></clipPath><clipPath id="863e7bcbdc"><path d="M 257.539062 61.320312 L 277.5 54.492188 L 290.703125 93.089844 L 270.738281 99.917969 Z M 257.539062 61.320312 " clip-rule="nonzero"/></clipPath></defs><g fill="#000000" fill-opacity="1"><g transform="translate(6.580701, 99.833879)"><g><path d="M 20.296875 -38.3125 C 26.554688 -38.3125 31.332031 -36.882812 34.625 -34.03125 C 37.914062 -31.1875 39.5625 -26.816406 39.5625 -20.921875 L 39.5625 0 L 27.25 0 L 27.25 -4.859375 C 25.351562 -1.203125 21.644531 0.625 16.125 0.625 C 13.207031 0.625 10.679688 0.113281 8.546875 -0.90625 C 6.421875 -1.925781 4.8125 -3.300781 3.71875 -5.03125 C 2.625 -6.769531 2.078125 -8.753906 2.078125 -10.984375 C 2.078125 -14.554688 3.445312 -17.328125 6.1875 -19.296875 C 8.925781 -21.265625 13.144531 -22.25 18.84375 -22.25 L 26.359375 -22.25 C 26.117188 -26.238281 23.453125 -28.234375 18.359375 -28.234375 C 16.546875 -28.234375 14.710938 -27.941406 12.859375 -27.359375 C 11.003906 -26.773438 9.429688 -25.976562 8.140625 -24.96875 L 3.6875 -33.9375 C 5.769531 -35.320312 8.304688 -36.394531 11.296875 -37.15625 C 14.285156 -37.925781 17.285156 -38.3125 20.296875 -38.3125 Z M 19.8125 -7.71875 C 21.34375 -7.71875 22.6875 -8.085938 23.84375 -8.828125 C 25.007812 -9.566406 25.847656 -10.65625 26.359375 -12.09375 L 26.359375 -15.359375 L 20.65625 -15.359375 C 16.800781 -15.359375 14.875 -14.085938 14.875 -11.546875 C 14.875 -10.378906 15.3125 -9.445312 16.1875 -8.75 C 17.070312 -8.0625 18.28125 -7.71875 19.8125 -7.71875 Z M 19.8125 -7.71875 "/></g></g></g><g fill="#000000" fill-opacity="1"><g transform="translate(43.156105, 99.833879)"><g><path d="M 4.234375 -51.59375 L 17.453125 -51.59375 L 17.453125 0 L 4.234375 0 Z M 4.234375 -51.59375 "/></g></g></g><g fill="#000000" fill-opacity="1"><g transform="translate(57.827981, 99.833879)"><g><path d="M 4.234375 -51.59375 L 17.453125 -51.59375 L 17.453125 0 L 4.234375 0 Z M 4.234375 -51.59375 "/></g></g></g><g fill="#000000" fill-opacity="1"><g transform="translate(72.499857, 99.833879)"><g><path d="M 44.296875 -51.59375 L 44.296875 0 L 31.703125 0 L 31.703125 -3.75 C 29.242188 -0.832031 25.5625 0.625 20.65625 0.625 C 17.21875 0.625 14.082031 -0.171875 11.25 -1.765625 C 8.425781 -3.367188 6.191406 -5.65625 4.546875 -8.625 C 2.898438 -11.59375 2.078125 -15.019531 2.078125 -18.90625 C 2.078125 -22.800781 2.898438 -26.21875 4.546875 -29.15625 C 6.191406 -32.101562 8.425781 -34.363281 11.25 -35.9375 C 14.082031 -37.519531 17.21875 -38.3125 20.65625 -38.3125 C 25.144531 -38.3125 28.617188 -37.015625 31.078125 -34.421875 L 31.078125 -51.59375 Z M 23.4375 -9.875 C 25.707031 -9.875 27.582031 -10.671875 29.0625 -12.265625 C 30.539062 -13.867188 31.28125 -16.082031 31.28125 -18.90625 C 31.28125 -21.6875 30.550781 -23.863281 29.09375 -25.4375 C 27.632812 -27.019531 25.75 -27.8125 23.4375 -27.8125 C 21.113281 -27.8125 19.207031 -27.019531 17.71875 -25.4375 C 16.238281 -23.863281 15.5 -21.6875 15.5 -18.90625 C 15.5 -16.082031 16.238281 -13.867188 17.71875 -12.265625 C 19.207031 -10.671875 21.113281 -9.875 23.4375 -9.875 Z M 23.4375 -9.875 "/></g></g></g><g fill="#000000" fill-opacity="1"><g transform="translate(113.942706, 99.833879)"><g><path d="M 16.828125 -33.171875 C 18.171875 -34.878906 19.921875 -36.160156 22.078125 -37.015625 C 24.234375 -37.878906 26.703125 -38.3125 29.484375 -38.3125 L 29.484375 -26.421875 C 28.273438 -26.554688 27.273438 -26.625 26.484375 -26.625 C 23.660156 -26.625 21.445312 -25.859375 19.84375 -24.328125 C 18.25 -22.804688 17.453125 -20.46875 17.453125 -17.3125 L 17.453125 0 L 4.234375 0 L 4.234375 -37.6875 L 16.828125 -37.6875 Z M 16.828125 -33.171875 "/></g></g></g><g fill="#000000" fill-opacity="1"><g transform="translate(137.654133, 99.833879)"><g><path d="M 42.765625 -18.765625 C 42.765625 -18.679688 42.691406 -17.59375 42.546875 -15.5 L 15.15625 -15.5 C 15.707031 -13.550781 16.785156 -12.054688 18.390625 -11.015625 C 19.992188 -9.972656 22 -9.453125 24.40625 -9.453125 C 26.207031 -9.453125 27.769531 -9.707031 29.09375 -10.21875 C 30.414062 -10.726562 31.75 -11.5625 33.09375 -12.71875 L 40.046875 -5.5 C 36.390625 -1.414062 31.035156 0.625 23.984375 0.625 C 19.578125 0.625 15.707031 -0.207031 12.375 -1.875 C 9.039062 -3.539062 6.457031 -5.859375 4.625 -8.828125 C 2.789062 -11.796875 1.875 -15.15625 1.875 -18.90625 C 1.875 -22.613281 2.765625 -25.941406 4.546875 -28.890625 C 6.335938 -31.835938 8.804688 -34.144531 11.953125 -35.8125 C 15.109375 -37.476562 18.65625 -38.3125 22.59375 -38.3125 C 26.351562 -38.3125 29.757812 -37.535156 32.8125 -35.984375 C 35.875 -34.429688 38.296875 -32.179688 40.078125 -29.234375 C 41.867188 -26.296875 42.765625 -22.804688 42.765625 -18.765625 Z M 22.671875 -28.921875 C 20.628906 -28.921875 18.921875 -28.34375 17.546875 -27.1875 C 16.179688 -26.03125 15.316406 -24.453125 14.953125 -22.453125 L 30.390625 -22.453125 C 30.015625 -24.453125 29.140625 -26.03125 27.765625 -27.1875 C 26.398438 -28.34375 24.703125 -28.921875 22.671875 -28.921875 Z M 22.671875 -28.921875 "/></g></g></g><g fill="#000000" fill-opacity="1"><g transform="translate(175.203026, 99.833879)"><g><path d="M 28.78125 -38.3125 C 33.46875 -38.3125 37.234375 -36.921875 40.078125 -34.140625 C 42.929688 -31.359375 44.359375 -27.160156 44.359375 -21.546875 L 44.359375 0 L 31.15625 0 L 31.15625 -19.40625 C 31.15625 -24.539062 29.09375 -27.109375 24.96875 -27.109375 C 22.6875 -27.109375 20.863281 -26.367188 19.5 -24.890625 C 18.132812 -23.410156 17.453125 -21.1875 17.453125 -18.21875 L 17.453125 0 L 4.234375 0 L 4.234375 -37.6875 L 16.828125 -37.6875 L 16.828125 -33.578125 C 18.304688 -35.109375 20.066406 -36.28125 22.109375 -37.09375 C 24.148438 -37.90625 26.375 -38.3125 28.78125 -38.3125 Z M 28.78125 -38.3125 "/></g></g></g><g fill="#000000" fill-opacity="1"><g transform="translate(216.506812, 99.833879)"><g><path d="M 20.296875 -38.3125 C 26.554688 -38.3125 31.332031 -36.882812 34.625 -34.03125 C 37.914062 -31.1875 39.5625 -26.816406 39.5625 -20.921875 L 39.5625 0 L 27.25 0 L 27.25 -4.859375 C 25.351562 -1.203125 21.644531 0.625 16.125 0.625 C 13.207031 0.625 10.679688 0.113281 8.546875 -0.90625 C 6.421875 -1.925781 4.8125 -3.300781 3.71875 -5.03125 C 2.625 -6.769531 2.078125 -8.753906 2.078125 -10.984375 C 2.078125 -14.554688 3.445312 -17.328125 6.1875 -19.296875 C 8.925781 -21.265625 13.144531 -22.25 18.84375 -22.25 L 26.359375 -22.25 C 26.117188 -26.238281 23.453125 -28.234375 18.359375 -28.234375 C 16.546875 -28.234375 14.710938 -27.941406 12.859375 -27.359375 C 11.003906 -26.773438 9.429688 -25.976562 8.140625 -24.96875 L 3.6875 -33.9375 C 5.769531 -35.320312 8.304688 -36.394531 11.296875 -37.15625 C 14.285156 -37.925781 17.285156 -38.3125 20.296875 -38.3125 Z M 19.8125 -7.71875 C 21.34375 -7.71875 22.6875 -8.085938 23.84375 -8.828125 C 25.007812 -9.566406 25.847656 -10.65625 26.359375 -12.09375 L 26.359375 -15.359375 L 20.65625 -15.359375 C 16.800781 -15.359375 14.875 -14.085938 14.875 -11.546875 C 14.875 -10.378906 15.3125 -9.445312 16.1875 -8.75 C 17.070312 -8.0625 18.28125 -7.71875 19.8125 -7.71875 Z M 19.8125 -7.71875 "/></g></g></g><g fill="#000000" fill-opacity="1"><g transform="translate(253.082222, 99.833879)"><g><path d="M 4.234375 -51.59375 L 17.453125 -51.59375 L 17.453125 0 L 4.234375 0 Z M 4.234375 -51.59375 "/></g></g></g><g fill="#000000" fill-opacity="1"><g transform="translate(267.754104, 99.833879)"><g><path d="M 4.234375 -37.6875 L 17.453125 -37.6875 L 17.453125 0 L 4.234375 0 Z M 10.84375 -41.859375 C 8.4375 -41.859375 6.488281 -42.53125 5 -43.875 C 3.519531 -45.21875 2.78125 -46.882812 2.78125 -48.875 C 2.78125 -50.875 3.519531 -52.546875 5 -53.890625 C 6.488281 -55.234375 8.4375 -55.90625 10.84375 -55.90625 C 13.25 -55.90625 15.191406 -55.265625 16.671875 -53.984375 C 18.160156 -52.710938 18.90625 -51.082031 18.90625 -49.09375 C 18.90625 -47 18.160156 -45.269531 16.671875 -43.90625 C 15.191406 -42.539062 13.25 -41.859375 10.84375 -41.859375 Z M 10.84375 -41.859375 "/></g></g></g><g fill="#000000" fill-opacity="1"><g transform="translate(282.425987, 99.833879)"><g><path d="M 28.78125 -38.3125 C 33.46875 -38.3125 37.234375 -36.921875 40.078125 -34.140625 C 42.929688 -31.359375 44.359375 -27.160156 44.359375 -21.546875 L 44.359375 0 L 31.15625 0 L 31.15625 -19.40625 C 31.15625 -24.539062 29.09375 -27.109375 24.96875 -27.109375 C 22.6875 -27.109375 20.863281 -26.367188 19.5 -24.890625 C 18.132812 -23.410156 17.453125 -21.1875 17.453125 -18.21875 L 17.453125 0 L 4.234375 0 L 4.234375 -37.6875 L 16.828125 -37.6875 L 16.828125 -33.578125 C 18.304688 -35.109375 20.066406 -36.28125 22.109375 -37.09375 C 24.148438 -37.90625 26.375 -38.3125 28.78125 -38.3125 Z M 28.78125 -38.3125 "/></g></g></g><g fill="#000000" fill-opacity="1"><g transform="translate(323.729773, 99.833879)"><g><path d="M 42.765625 -18.765625 C 42.765625 -18.679688 42.691406 -17.59375 42.546875 -15.5 L 15.15625 -15.5 C 15.707031 -13.550781 16.785156 -12.054688 18.390625 -11.015625 C 19.992188 -9.972656 22 -9.453125 24.40625 -9.453125 C 26.207031 -9.453125 27.769531 -9.707031 29.09375 -10.21875 C 30.414062 -10.726562 31.75 -11.5625 33.09375 -12.71875 L 40.046875 -5.5 C 36.390625 -1.414062 31.035156 0.625 23.984375 0.625 C 19.578125 0.625 15.707031 -0.207031 12.375 -1.875 C 9.039062 -3.539062 6.457031 -5.859375 4.625 -8.828125 C 2.789062 -11.796875 1.875 -15.15625 1.875 -18.90625 C 1.875 -22.613281 2.765625 -25.941406 4.546875 -28.890625 C 6.335938 -31.835938 8.804688 -34.144531 11.953125 -35.8125 C 15.109375 -37.476562 18.65625 -38.3125 22.59375 -38.3125 C 26.351562 -38.3125 29.757812 -37.535156 32.8125 -35.984375 C 35.875 -34.429688 38.296875 -32.179688 40.078125 -29.234375 C 41.867188 -26.296875 42.765625 -22.804688 42.765625 -18.765625 Z M 22.671875 -28.921875 C 20.628906 -28.921875 18.921875 -28.34375 17.546875 -27.1875 C 16.179688 -26.03125 15.316406 -24.453125 14.953125 -22.453125 L 30.390625 -22.453125 C 30.015625 -24.453125 29.140625 -26.03125 27.765625 -27.1875 C 26.398438 -28.34375 24.703125 -28.921875 22.671875 -28.921875 Z M 22.671875 -28.921875 "/></g></g></g><g clip-path="url(#cc22e8f23c)"><path fill="#000000" d="M 261.738281 62.261719 L 283.59375 62.261719 L 283.59375 99.652344 L 261.738281 99.652344 Z M 261.738281 62.261719 " fill-opacity="1" fill-rule="nonzero"/></g><g clip-path="url(#227c0c4ae8)"><g clip-path="url(#45ad5dbdd4)"><g clip-path="url(#715deb4622)"><path fill="#c1ff72" d="M 267.21875 58.011719 L 277.058594 54.644531 L 273.777344 70.539062 L 279.546875 68.5625 L 270.664062 99.664062 L 271.804688 77.511719 L 265.632812 79.96875 Z M 267.21875 58.011719 " fill-opacity="1" fill-rule="nonzero"/></g></g></g><g clip-path="url(#0657937ff7)"><g clip-path="url(#f8e6e95bd3)"><g clip-path="url(#863e7bcbdc)"><path fill="#000000" d="M 267.21875 58.011719 L 268.914062 57.429688 L 265.632812 79.96875 Z M 270.664062 99.664062 L 272.992188 77.105469 L 271.804688 77.511719 Z M 270.664062 99.664062 " fill-opacity="1" fill-rule="nonzero"/></g></g></g></svg>